<svg xmlns="http://www.w3.org/2000/svg" xmlns:xlink="http://www.w3.org/1999/xlink" version="1.1" data-diagram-type="DESCRIPTION" style="width:1333px;height:930px;background:#FFFFFF;" width="1333px" height="930px" viewBox="0 0 1333 930" zoomAndPan="magnify" preserveAspectRatio="none" contentStyleType="text/css"><?plantuml 1.2026.8?><defs/><g font-family="sans-serif" lengthAdjust="spacing"><g class="title" data-source-line="2"><text x="352.067" y="29.493" fill="#16324F" font-size="21" textLength="622.228" font-weight="700">Singleton, estado por petición y límites compartidos</text></g><!--cluster Contexto Spring: instancias compartidas (singleton)--><g class="cluster" data-qualified-name="Contexto Spring. instancias compartidas .singleton." id="ent0003" data-source-line="6"><rect x="7" y="174.235" width="561" height="278.08" fill="none" style="stroke:#181818;stroke-width:1;" rx="6" ry="6"/><text x="80.99" y="189.23" fill="#000" font-size="14" textLength="413.021" font-weight="700">Contexto Spring: instancias compartidas (singleton)</text></g><!--cluster Estado de cada suscripción reactiva--><g class="cluster" data-qualified-name="Estado de cada suscripci.n reactiva" id="ent0008" data-source-line="12"><rect x="442" y="560.205" width="443" height="136.19" fill="none" style="stroke:#181818;stroke-width:1;" rx="6" ry="6"/><text x="521.774" y="575.2" fill="#000" font-size="14" textLength="283.452" font-weight="700">Estado de cada suscripción reactiva</text></g><!--entity controller--><g class="entity" data-qualified-name="Contexto Spring. instancias compartidas .singleton..controller" id="ent0004" data-source-line="7"><rect x="79.73" y="217.385" width="102.53" height="36.297" fill="#EFF6FF" style="stroke:#3B638C;stroke-width:0.5;" rx="6" ry="6"/><text x="89.73" y="240.38" fill="#000" font-size="14" textLength="82.53">1 Controller</text></g><!--entity service--><g class="entity" data-qualified-name="Contexto Spring. instancias compartidas .singleton..service" id="ent0005" data-source-line="8"><rect x="297.92" y="383.725" width="254.158" height="52.594" fill="#EFF6FF" style="stroke:#3B638C;stroke-width:0.5;" rx="6" ry="6"/><text x="392.45" y="406.72" fill="#000" font-size="14" textLength="65.099">1 Service</text><text x="307.92" y="423.017" fill="#000" font-size="14" textLength="234.158">Sin estado mutable de peticiones</text></g><!--entity client--><g class="entity" data-qualified-name="Contexto Spring. instancias compartidas .singleton..client" id="ent0006" data-source-line="9"><rect x="358.41" y="209.235" width="193.182" height="52.594" fill="#EFF6FF" style="stroke:#3B638C;stroke-width:0.5;" rx="6" ry="6"/><text x="390.025" y="232.23" fill="#000" font-size="14" textLength="129.951">1 ProductApiClient</text><text x="368.41" y="248.527" fill="#000" font-size="14" textLength="173.182">1 WebClient configurado</text></g><!--entity pool--><g class="entity" data-qualified-name="Contexto Spring. instancias compartidas .singleton..pool" id="ent0007" data-source-line="10"><rect x="23.23" y="383.725" width="239.536" height="52.594" fill="#EFF6FF" style="stroke:#3B638C;stroke-width:0.5;" rx="6" ry="6"/><text x="67.615" y="406.72" fill="#000" font-size="14" textLength="150.767">1 ConnectionProvider</text><text x="33.23" y="423.017" fill="#000" font-size="14" textLength="219.536">Pool de conexiones compartido</text></g><!--entity flowA--><g class="entity" data-qualified-name="Estado de cada suscripci.n reactiva.flowA" id="ent0009" data-source-line="13"><rect x="458.11" y="595.205" width="187.781" height="85.188" fill="#DCFCE7" style="stroke:#181818;stroke-width:0.5;" rx="6" ry="6"/><text x="528.352" y="618.2" fill="#000" font-size="14" textLength="47.298">Flujo A</text><text x="480.934" y="634.497" fill="#000" font-size="14" textLength="142.133">Sus IDs y resultados</text><text x="468.11" y="650.794" fill="#000" font-size="14" textLength="167.781">Hasta 4 detalles activos</text><text x="495.105" y="667.091" fill="#000" font-size="14" textLength="113.791">Plazo global: 8 s</text></g><!--entity flowB--><g class="entity" data-qualified-name="Estado de cada suscripci.n reactiva.flowB" id="ent0010" data-source-line="14"><rect x="681.11" y="595.205" width="187.781" height="85.188" fill="#DCFCE7" style="stroke:#181818;stroke-width:0.5;" rx="6" ry="6"/><text x="751.338" y="618.2" fill="#000" font-size="14" textLength="47.325">Flujo B</text><text x="703.934" y="634.497" fill="#000" font-size="14" textLength="142.133">Sus IDs y resultados</text><text x="691.11" y="650.794" fill="#000" font-size="14" textLength="167.781">Hasta 4 detalles activos</text><text x="718.105" y="667.091" fill="#000" font-size="14" textLength="113.791">Plazo global: 8 s</text></g><!--entity a--><g class="entity" data-qualified-name="a" id="ent0001" data-source-line="4"><ellipse cx="78.004" cy="59.445" rx="8" ry="8" fill="#F1F1F1" style="stroke:#181818;stroke-width:0.5;"/><path d="M78.004,67.445 L78.004,94.445 M65.004,75.445 L91.004,75.445 M78.004,94.445 L65.004,109.445 M78.004,94.445 L91.004,109.445" style="stroke:#181818;stroke-width:0.5;" fill="none"/><text x="43.26" y="123.94" fill="#000" font-size="14" textLength="69.487">Petición A</text></g><!--entity b--><g class="entity" data-qualified-name="b" id="ent0002" data-source-line="5"><ellipse cx="182.997" cy="59.445" rx="8" ry="8" fill="#F1F1F1" style="stroke:#181818;stroke-width:0.5;"/><path d="M182.997,67.445 L182.997,94.445 M169.997,75.445 L195.997,75.445 M182.997,94.445 L169.997,109.445 M182.997,94.445 L195.997,109.445" style="stroke:#181818;stroke-width:0.5;" fill="none"/><text x="148.24" y="123.94" fill="#000" font-size="14" textLength="69.515">Petición B</text></g><!--entity api--><g class="entity" data-qualified-name="api" id="ent0011" data-source-line="16"><path d="M72.153,624.695 C75.531,618.742 79.965,617.314 84.479,623.545 C86.639,618.392 91.469,617.244 95.051,622.032 C99.24,615.055 103.317,615.681 108.233,621.269 C112.923,615.696 117.404,617.016 120.925,622.598 C123.716,616.44 127.415,615.835 132.466,620.094 C135.276,614.63 140.775,614.678 143.56,620.12 C147.259,614.496 153.087,613.865 156.243,620.674 C160.917,615.475 164.444,616.496 167.433,622.376 C170.815,616.018 176.77,616.009 180.021,622.504 C182.887,616.899 188.038,616.219 191.786,621.556 C196.238,615.725 202.541,617.437 205.182,623.582 C207.685,618.173 212.991,618.68 216.105,622.889 C223.139,626.506 224.053,633.657 217.914,638.775 C223.838,643.544 222.85,650.82 215.641,653.572 C213.219,660.888 208.654,661.419 203.319,656.506 C199.9,661.424 195.922,661.525 192.149,656.922 C188.64,663.069 184.358,664.461 179.646,658.128 C177.311,665.005 171.987,664.201 167.913,659.962 C164.577,666.083 159.572,665.967 155.211,661.152 C152.86,667.559 148.472,667.548 144.017,663.378 C139.207,669.681 134.52,668.344 131.554,661.614 C127.346,666.36 121.617,666.703 119.271,659.671 C114.309,664.383 110.486,664.64 107.657,657.569 C104.264,663.214 99.088,662.402 96.35,656.904 C92.726,662.004 87.101,661.247 84.35,655.902 C79.995,660.977 75.031,660.92 71.762,654.693 C63.612,651.951 61.301,646.763 67.519,639.9 C61.273,633.144 62.761,626.684 72.153,624.695" style="stroke:#181818;stroke-width:0.5;" fill="#F1F1F1"/><text x="77.63" y="642.65" fill="#000" font-size="14" textLength="130.737">Misma API externa</text></g><g class="entity" data-qualified-name="GMN21" id="ent0022" data-source-line="27"><path d="M587.36,345.835 L587.36,474.21 A6,6 0 0 0 593.36,480.21 L916.649,480.21 A6,6 0 0 0 922.649,474.21 L922.649,349.835 L912.649,339.835 L593.36,339.835 A6,6 0 0 0 587.36,345.835" style="stroke:#B78D24;stroke-width:0.5;" fill="#FFF8DB"/><path d="M912.649,339.835 L912.649,346.835 A3,3 0 0 0 915.649,349.835 L922.649,349.835 L912.649,339.835" style="stroke:#B78D24;stroke-width:1;" fill="#FFF8DB"/><text x="643.751" y="357.83" fill="#000" font-size="14" textLength="213.507">Si no hay conexión disponible:</text><text x="619.48" y="374.127" fill="#000" font-size="14" textLength="262.049">• Cola limitada a 1024 adquisiciones.</text><text x="619.637" y="390.424" fill="#000" font-size="14" textLength="261.734">• Espera máxima de adquisición: 1 s.</text><text x="748.279" y="406.721" fill="#000" font-size="14"> </text><text x="643.799" y="423.018" fill="#000" font-size="14" textLength="213.411">Si una conexión queda ociosa:</text><text x="635.722" y="439.315" fill="#000" font-size="14" textLength="229.564">• Caduca tras 2 s de inactividad.</text><text x="678.956" y="455.612" fill="#000" font-size="14" textLength="143.097">• Limpieza cada 1 s.</text><text x="593.36" y="471.909" fill="#000" font-size="14" textLength="314.289">• LIFO: preferir la usada más recientemente.</text></g><g class="entity" data-qualified-name="GMN24" id="ent0025" data-source-line="37"><path d="M631.49,749.395 L631.49,796.286 A6,6 0 0 0 637.49,802.286 L912.511,802.286 A6,6 0 0 0 918.511,796.286 L918.511,753.395 L908.511,743.395 L779,743.395 L775,680.535 L771,743.395 L637.49,743.395 A6,6 0 0 0 631.49,749.395" style="stroke:#B78D24;stroke-width:0.5;" fill="#FFF8DB"/><path d="M908.511,743.395 L908.511,750.395 A3,3 0 0 0 911.511,753.395 L918.511,753.395 L908.511,743.395" style="stroke:#B78D24;stroke-width:0.5;" fill="#FFF8DB"/><text x="637.49" y="761.39" fill="#000" font-size="14" textLength="266.021">Los productos de A y B no se guardan</text><text x="650.468" y="777.687" fill="#000" font-size="14" textLength="240.064">en atributos del singleton Service.</text><text x="638.262" y="793.984" fill="#000" font-size="14" textLength="264.476">Cada flujo conserva su propio estado.</text></g><!--link a to controller--><g class="link" data-entity-1="ent0001" data-entity-2="ent0004" id="lnk12" data-source-line="17" data-link-type="dependency"><path d="M91.79,127.665 C102.4,156.585 114.859,190.531 122.929,212.541" style="stroke:#334155;stroke-width:1;" fill="none" id="a-to-controller"/><polygon points="124.65,217.235,125.307,207.408,122.929,212.541,117.796,210.162,124.65,217.235" fill="#334155" style="stroke:#334155;stroke-width:1;stroke-linejoin:miter;stroke-miterlimit:10;"/></g><!--link b to controller--><g class="link" data-entity-1="ent0002" data-entity-2="ent0004" id="lnk13" data-source-line="18" data-link-type="dependency"><path d="M169.47,127.665 C159.06,156.585 146.843,190.521 138.923,212.531" style="stroke:#334155;stroke-width:1;" fill="none" id="b-to-controller"/><polygon points="137.23,217.235,144.041,210.121,138.923,212.531,136.514,207.413,137.23,217.235" fill="#334155" style="stroke:#334155;stroke-width:1;stroke-linejoin:miter;stroke-miterlimit:10;"/></g><!--link controller to service--><g class="link" data-entity-1="ent0004" data-entity-2="ent0005" id="lnk14" data-source-line="19" data-link-type="dependency"><path d="M124.3,254.015 C119.31,270.315 115.3,294.385 128,309.835 C171.72,363.025 214.64,318.165 280,339.835 C314.29,351.195 346.559,366.448 374.459,381.038" style="stroke:#334155;stroke-width:1;" fill="none" id="controller-to-service"/><polygon points="378.89,383.355,372.768,375.64,374.459,381.038,369.061,382.729,378.89,383.355" fill="#334155" style="stroke:#334155;stroke-width:1;stroke-linejoin:miter;stroke-miterlimit:10;"/><text x="129" y="305.83" fill="#000" font-size="14" textLength="178.787">Inyección por constructor</text></g><!--link service to flowA--><g class="link" data-entity-1="ent0005" data-entity-2="ent0009" id="lnk15" data-source-line="20" data-link-type="dependency"><path d="M439.32,436.485 C460.99,474.995 499.889,544.158 526.019,590.608" style="stroke:#334155;stroke-width:1;stroke-dasharray:7,7;" fill="none" id="service-to-flowA"/><polygon points="528.47,594.965,527.544,585.16,526.019,590.608,520.571,589.082,528.47,594.965" fill="#334155" style="stroke:#334155;stroke-width:1;stroke-linejoin:miter;stroke-miterlimit:10;"/><text x="500.88" y="532.2" fill="#000" font-size="14" textLength="160.549">Pipeline independiente</text></g><!--link service to flowB--><g class="link" data-entity-1="ent0005" data-entity-2="ent0010" id="lnk16" data-source-line="21" data-link-type="dependency"><path d="M474.16,436.805 C501.86,450.725 537.34,467.605 570,480.205 C613.29,496.915 631.31,484.585 670,510.205 C702.85,531.965 727.996,562.916 746.776,590.636" style="stroke:#334155;stroke-width:1;stroke-dasharray:7,7;" fill="none" id="service-to-flowB"/><polygon points="749.58,594.775,747.844,585.081,746.776,590.636,741.22,589.568,749.58,594.775" fill="#334155" style="stroke:#334155;stroke-width:1;stroke-linejoin:miter;stroke-miterlimit:10;"/><text x="708.48" y="532.2" fill="#000" font-size="14" textLength="160.549">Pipeline independiente</text></g><!--link flowA to client--><g class="link" data-entity-1="ent0009" data-entity-2="ent0006" id="lnk17" data-source-line="22" data-link-type="dependency"><path d="M594.57,594.865 C614.08,578.395 638.52,561.285 664,552.205 C708.62,536.315 833.66,563.325 877,544.205 C963.97,505.845 999.8,413.715 940,339.835 C892.13,280.695 684.152,254.401 556.882,243.531" style="stroke:#334155;stroke-width:1;" fill="none" id="flowA-to-client"/><polygon points="551.9,243.105,560.527,247.857,556.882,243.531,561.208,239.886,551.9,243.105" fill="#334155" style="stroke:#334155;stroke-width:1;stroke-linejoin:miter;stroke-miterlimit:10;"/><text x="970.57" y="415.01" fill="#000" font-size="14" textLength="154.711">Consultar sus detalles</text></g><!--link flowB to client--><g class="link" data-entity-1="ent0010" data-entity-2="ent0006" id="lnk18" data-source-line="23" data-link-type="dependency"><path d="M869.12,624.565 C954.52,607.935 1075.7,569.235 1134,480.205 C1168.18,428.015 1173.46,388.165 1134,339.835 C1062.22,251.915 726.7,237.671 556.83,236.131" style="stroke:#334155;stroke-width:1;" fill="none" id="flowB-to-client"/><polygon points="551.83,236.085,560.793,240.167,556.83,236.131,560.866,232.167,551.83,236.085" fill="#334155" style="stroke:#334155;stroke-width:1;stroke-linejoin:miter;stroke-miterlimit:10;"/><text x="1162.65" y="415.01" fill="#000" font-size="14" textLength="154.711">Consultar sus detalles</text></g><!--link client to pool--><g class="link" data-entity-1="ent0006" data-entity-2="ent0007" id="lnk19" data-source-line="24" data-link-type="dependency"><path d="M408.63,262.175 C349.72,294.735 253.026,348.196 194.006,380.826" style="stroke:#334155;stroke-width:1;" fill="none" id="client-to-pool"/><polygon points="189.63,383.245,199.442,382.391,194.006,380.826,195.571,375.39,189.63,383.245" fill="#334155" style="stroke:#334155;stroke-width:1;stroke-linejoin:miter;stroke-miterlimit:10;"/><text x="355.08" y="305.83" fill="#000" font-size="14" textLength="199.028">Adquirir / reutilizar conexión</text></g><!--link pool to api--><g class="link" data-entity-1="ent0007" data-entity-2="ent0011" id="lnk20" data-source-line="25" data-link-type="dependency"><path d="M143,436.485 C143,480.995 143,567.245 143,609.465" style="stroke:#334155;stroke-width:1;" fill="none" id="pool-to-api"/><polygon points="143,614.465,147,605.465,143,609.465,139,605.465,143,614.465" fill="#334155" style="stroke:#334155;stroke-width:1;stroke-linejoin:miter;stroke-miterlimit:10;"/><text x="156.862" y="524.2" fill="#000" font-size="14" textLength="155.36">Hasta 800 conexiones</text><text x="144" y="540.497" fill="#000" font-size="14" textLength="181.084">entre todas las peticiones</text></g><!--link pool to GMN21--><g class="link" data-entity-1="ent0007" data-entity-2="ent0022" id="lnk23" data-source-line="27" data-link-type="association"><path d="M169.42,383.435 C198.09,356.635 246.63,316.995 297.5,300.835 C404.67,266.785 441.42,273.535 550.5,300.835 C583.2,309.015 616.39,323.525 646.25,339.355" style="stroke:#334155;stroke-width:1;stroke-dasharray:7,7;" fill="none" id="pool-GMN21"/></g><g class="legend" data-source-line="41"><rect x="371.345" y="823.286" width="583.672" height="75.188" fill="none" style="stroke:#000;stroke-width:1;" rx="6" ry="6"/><text x="376.345" y="841.281" fill="#000" font-size="14" textLength="573.672">Singleton = una instancia por bean y contexto Spring, no una instancia universal.</text><text x="421.523" y="857.578" fill="#000" font-size="14" textLength="483.314">4 consultas concurrentes NO significa 4 hilos dedicados por petición.</text><text x="426.069" y="873.875" fill="#000" font-size="14" textLength="474.223">800 conexiones NO significa 800 peticiones de usuario ni 800 hilos.</text><text x="390.327" y="890.172" fill="#000" font-size="14" textLength="545.706">Los límites de llamada incluyen la espera de conexión y la lectura del cuerpo.</text></g><g class="footer" data-source-line="23"><text x="524.848" y="920.756" fill="#64748B" font-size="10" textLength="276.665">Nunegal · Solución implementada · Valores por defecto</text></g><?plantuml-src hLNDRXj73BxlKp3A9G4InGuCD13G099Y8mRo8y27NdIXTYcPnUpCPduSoq60l4fwxwcFu3VfavISMQtNJWhqq8kmMdxpaVFn8_SHszgaXY34lQ5fbrfJHOw6u8Bjpb1qzXbGYDWuw9o7ZYBNVFkNXJsOspzRZXIWTcs7FdBZGXLT1z71niNeMcZOKntPsGhhACSdg-7yV08O07yCB79WK-b9r1fWidGsqhNGNdHUofe1Mod9reoZvFBy91oAVZg1BnNaeBDa8qoEGLcyCuPypb0FVny2ByXVSKrhAneSBj-cY1kfHQGg6WWwP9vGq0z9LjurgOxpZfU6vTtQ7iDlj2b_DFcMTyaBTIacl_v9nRRe9snNt91VsvLpHgiG1hhELOpqproT8AglO_rEontq53O88ONQSrVazYGTu2iiWeqEdPdqkuEvg902dBy9qd5F8Hcb2clx5eKKJeGqeeWehLGQZQmCtZZO6RT1CuDNK6JQ6lTv3e_VBC-Mfx_yBDFY_yoq639zhMhZKWEJznnQXFdg7CHAv2qM0tPS8Jn__dhiXyt35tUFETAt76PmRlTK5o5rF0GNeazgwUe0cavVzvUVmOexCcn93DnGHxRHhjCFqCM_GmjJBgyuQQOkoM9vRUoWKbM8_WkoZojKlIF0UVCfiMSFBwGJARBX6_IzvUIkLOOfNkGJUEdGgwEZaIlNQc9FiWnqCetwSfYRohf8u7bt6S5jYs51DWvO1vUulqia2oJ8EB1CtamGVt_xG-vW40pBvb4h8nmVlJm1r7f3ppxjaQUX8u_Gtdw_Pkcyk7-02VKCZa6W9M-oE4hwAP5GEs4BEAH5cMQ4wEKYBq75ayPa8yhcQGuftt7RCTrWcRESe0-SdtsSGUTfIoghN245XKXnGKSXDxVLdsablGOLgAZKRrAHAJTK-DuvqR9i5vSBcSl0B5IxGB1Bw1kq0YCB63rlKa4P69RZOS5fSKkjOfi7KCqh0TqFoj-nwvVVg2H3EtqkHMNj3fo_PX67nPp7OKEe7uhw_lf-fgNU1oVBL-G36Ytf95UYFirBkaxUgp01FdoKE-miRxdMVN399j-iaR-DQZB-FYdHVKFUFwwnEqEgYYc8T79dopcOsQUztCEdJd36OAkYvI_dNbIMPbAnsh2M-m-a65MsNCeH0tKYtnKnYup_0000?></g></svg>